 <svg display="none" width="24" height="24" version="1.1"
      xmlns="http://www.w3.org/2000/svg"
      xmlns:xlink="http://www.w3.org/1999/xlink">
    <defs>
        <symbol id="icon-save" viewBox="0 0 24 24">
            <title>save</title>
            <path d="M17 3H5c-1.11 0-2 .9-2 2v14c0 1.1.89 2 2 2h14c1.1 0 2-.9 2-2V7l-4-4zm2 16H5V5h11.17L19 7.83V19zm-7-7c-1.66 0-3 1.34-3 3s1.34 3 3 3 3-1.34 3-3-1.34-3-3-3zM6 6h9v4H6z"/>
        </symbol>
        <symbol id="icon-save--fill" viewBox="0 0 24 24">
            <title>save fill</title>
            <path d="M17 3H5c-1.11 0-2 .9-2 2v14c0 1.1.89 2 2 2h14c1.1 0 2-.9 2-2V7l-4-4zm-5 16c-1.66 0-3-1.34-3-3s1.34-3 3-3 3 1.34 3 3-1.34 3-3 3zm3-10H5V5h10v4z" />
        </symbol>
        <symbol id="icon-save--round" viewBox="0 0 24 24">
            <title>save round</title>
            <path d="M17.59 3.59c-.38-.38-.89-.59-1.42-.59H5c-1.11 0-2 .9-2 2v14c0 1.1.9 2 2 2h14c1.1 0 2-.9 2-2V7.83c0-.53-.21-1.04-.59-1.41l-2.82-2.83zM12 19c-1.66 0-3-1.34-3-3s1.34-3 3-3 3 1.34 3 3-1.34 3-3 3zm1-10H7c-1.1 0-2-.9-2-2s.9-2 2-2h6c1.1 0 2 .9 2 2s-.9 2-2 2z"/>
        </symbol>
        <symbol id="icon-save--sharp" viewBox="0 0 24 24">
            <title>save shart</title>
            <path d="M17 3H3v18h18V7l-4-4zm-5 16c-1.66 0-3-1.34-3-3s1.34-3 3-3 3 1.34 3 3-1.34 3-3 3zm3-10H5V5h10v4z"/>
        </symbol>
        <symbol id="icon-edit" viewBox="0 0 24 24">
            <title>edit</title>
            <path d="M14.06 9.02l.92.92L5.92 19H5v-.92l9.06-9.06M17.66 3c-.25 0-.51.1-.7.29l-1.83 1.83 3.75 3.75 1.83-1.83c.39-.39.39-1.02 0-1.41l-2.34-2.34c-.2-.2-.45-.29-.71-.29zm-3.6 3.19L3 17.25V21h3.75L17.81 9.94l-3.75-3.75z"/>
        </symbol>
        <symbol id="icon-edit--fill" viewBox="0 0 24 24">
            <title>edit fill</title>
            <path d="M3 17.25V21h3.75L17.81 9.94l-3.75-3.75L3 17.25zM20.71 7.04c.39-.39.39-1.02 0-1.41l-2.34-2.34c-.39-.39-1.02-.39-1.41 0l-1.83 1.83 3.75 3.75 1.83-1.83z"/>
        </symbol>
        <symbol id="icon-edit--round" viewBox="0 0 24 24">
            <title>edit round</title>
            <path d="M3 17.46v3.04c0 .28.22.5.5.5h3.04c.13 0 .26-.05.35-.15L17.81 9.94l-3.75-3.75L3.15 17.1c-.1.1-.15.22-.15.36zM20.71 7.04c.39-.39.39-1.02 0-1.41l-2.34-2.34c-.39-.39-1.02-.39-1.41 0l-1.83 1.83 3.75 3.75 1.83-1.83z"/>
        </symbol>
        <symbol id="icon-edit--sharp" viewBox="0 0 24 24">
            <title>edit sharp</title>
            <path d="M3 17.25V21h3.75L17.81 9.94l-3.75-3.75L3 17.25zM21.41 6.34l-3.75-3.75-2.53 2.54 3.75 3.75 2.53-2.54z"/>
        </symbol>
        <symbol id="icon-delete" viewBox="0 0 24 24">
            <title>delete</title>
            <path d="M16 9v10H8V9h8m-1.5-6h-5l-1 1H5v2h14V4h-3.5l-1-1zM18 7H6v12c0 1.1.9 2 2 2h8c1.1 0 2-.9 2-2V7z"/>
        </symbol>
        <symbol id="icon-delete--fill" viewBox="0 0 24 24">
            <title>delete fill</title>
            <path d="M6 19c0 1.1.9 2 2 2h8c1.1 0 2-.9 2-2V7H6v12zM19 4h-3.5l-1-1h-5l-1 1H5v2h14V4z"/>
        </symbol>
        <symbol id="icon-delete--round" viewBox="0 0 24 24">
            <title>delete round</title>
            <path d="M6 19c0 1.1.9 2 2 2h8c1.1 0 2-.9 2-2V9c0-1.1-.9-2-2-2H8c-1.1 0-2 .9-2 2v10zM18 4h-2.5l-.71-.71c-.18-.18-.44-.29-.7-.29H9.91c-.26 0-.52.11-.7.29L8.5 4H6c-.55 0-1 .45-1 1s.45 1 1 1h12c.55 0 1-.45 1-1s-.45-1-1-1z"/>
        </symbol>
        <symbol id="icon-delete--sharp" viewBox="0 0 24 24">
            <title>delete sharp</title>
            <path d="M6 21h12V7H6v14zM19 4h-3.5l-1-1h-5l-1 1H5v2h14V4z"/>
        </symbol>
        <symbol id="icon-add" viewBox="0 0 24 24">
            <title>add</title>
            <path d="M19 13h-6v6h-2v-6H5v-2h6V5h2v6h6v2z"/>
        </symbol>
        <symbol id="icon-add--fill" viewBox="0 0 24 24">
            <title>add fill</title>
            <path d="M19 13h-6v6h-2v-6H5v-2h6V5h2v6h6v2z"/>
        </symbol>
        <symbol id="icon-add--round" viewBox="0 0 24 24">
            <title>add round</title>
            <path d="M18 13h-5v5c0 .55-.45 1-1 1s-1-.45-1-1v-5H6c-.55 0-1-.45-1-1s.45-1 1-1h5V6c0-.55.45-1 1-1s1 .45 1 1v5h5c.55 0 1 .45 1 1s-.45 1-1 1z"/>
        </symbol>
        <symbol id="icon-add--sharp" viewBox="0 0 24 24">
            <title>add sharp</title>
            <path d="M19 13h-6v6h-2v-6H5v-2h6V5h2v6h6v2z"/>
        </symbol>
        <symbol id="icon-table" viewBox="0 0 24 24">
            <title>table</title>
            <path d="M20 2H4c-1.1 0-2 .9-2 2v16c0 1.1.9 2 2 2h16c1.1 0 2-.9 2-2V4c0-1.1-.9-2-2-2zM8 20H4v-4h4v4zm0-6H4v-4h4v4zm0-6H4V4h4v4zm6 12h-4v-4h4v4zm0-6h-4v-4h4v4zm0-6h-4V4h4v4zm6 12h-4v-4h4v4zm0-6h-4v-4h4v4zm0-6h-4V4h4v4z"/>
        </symbol>
        <symbol id="icon-table--fill" viewBox="0 0 24 24">
            <title>table fill</title>
            <path d="M20 2H4c-1.1 0-2 .9-2 2v16c0 1.1.9 2 2 2h16c1.1 0 2-.9 2-2V4c0-1.1-.9-2-2-2zM8 20H4v-4h4v4zm0-6H4v-4h4v4zm0-6H4V4h4v4zm6 12h-4v-4h4v4zm0-6h-4v-4h4v4zm0-6h-4V4h4v4zm6 12h-4v-4h4v4zm0-6h-4v-4h4v4zm0-6h-4V4h4v4z"/>
        </symbol>
        <symbol id="icon-table--round" viewBox="0 0 24 24">
            <title>table round</title>
            <path d="M20 2H4c-1.1 0-2 .9-2 2v16c0 1.1.9 2 2 2h16c1.1 0 2-.9 2-2V4c0-1.1-.9-2-2-2zM8 20H4v-4h4v4zm0-6H4v-4h4v4zm0-6H4V4h4v4zm6 12h-4v-4h4v4zm0-6h-4v-4h4v4zm0-6h-4V4h4v4zm6 12h-4v-4h4v4zm0-6h-4v-4h4v4zm0-6h-4V4h4v4z"/>
        </symbol>
        <symbol id="icon-table--sharp" viewBox="0 0 24 24">
            <title>table sharp</title>
            <path d="M22 2H2v20h20V2zM8 20H4v-4h4v4zm0-6H4v-4h4v4zm0-6H4V4h4v4zm6 12h-4v-4h4v4zm0-6h-4v-4h4v4zm0-6h-4V4h4v4zm6 12h-4v-4h4v4zm0-6h-4v-4h4v4zm0-6h-4V4h4v4z"/>
        </symbol>
        <symbol id="icon-close" viewBox="0 0 24 24">
            <title>close</title>
            <path d="M19 6.41L17.59 5 12 10.59 6.41 5 5 6.41 10.59 12 5 17.59 6.41 19 12 13.41 17.59 19 19 17.59 13.41 12 19 6.41z"/>
        </symbol>
        <symbol id="icon-close--fill" viewBox="0 0 24 24">
            <title>close fill</title>
            <path d="M19 6.41L17.59 5 12 10.59 6.41 5 5 6.41 10.59 12 5 17.59 6.41 19 12 13.41 17.59 19 19 17.59 13.41 12 19 6.41z"/>
        </symbol>
        <symbol id="icon-close--round" viewBox="0 0 24 24">
            <title>close round</title>
            <path d="M18.3 5.71c-.39-.39-1.02-.39-1.41 0L12 10.59 7.11 5.7c-.39-.39-1.02-.39-1.41 0-.39.39-.39 1.02 0 1.41L10.59 12 5.7 16.89c-.39.39-.39 1.02 0 1.41.39.39 1.02.39 1.41 0L12 13.41l4.89 4.89c.39.39 1.02.39 1.41 0 .39-.39.39-1.02 0-1.41L13.41 12l4.89-4.89c.38-.38.38-1.02 0-1.4z"/>
        </symbol>
        <symbol id="icon-close--sharp" viewBox="0 0 24 24">
            <title>close sharp</title>
            <path d="M19 6.41L17.59 5 12 10.59 6.41 5 5 6.41 10.59 12 5 17.59 6.41 19 12 13.41 17.59 19 19 17.59 13.41 12 19 6.41z"/>
        </symbol>
        <symbol id="icon-refresh" viewBox="0 0 24 24">
            <title>refresh</title>
            <path d="M17.65 6.35C16.2 4.9 14.21 4 12 4c-4.42 0-7.99 3.58-7.99 8s3.57 8 7.99 8c3.73 0 6.84-2.55 7.73-6h-2.08c-.82 2.33-3.04 4-5.65 4-3.31 0-6-2.69-6-6s2.69-6 6-6c1.66 0 3.14.69 4.22 1.78L13 11h7V4l-2.35 2.35z"/>
        </symbol>
        <symbol id="icon-refresh--fill" viewBox="0 0 24 24">
            <title>refresh fill</title>
            <path d="M17.65 6.35C16.2 4.9 14.21 4 12 4c-4.42 0-7.99 3.58-7.99 8s3.57 8 7.99 8c3.73 0 6.84-2.55 7.73-6h-2.08c-.82 2.33-3.04 4-5.65 4-3.31 0-6-2.69-6-6s2.69-6 6-6c1.66 0 3.14.69 4.22 1.78L13 11h7V4l-2.35 2.35z"/>
        </symbol>
        <symbol id="icon-refresh--round" viewBox="0 0 24 24">
            <title>refresh round</title>
            <path d="M17.65 6.35c-1.63-1.63-3.94-2.57-6.48-2.31-3.67.37-6.69 3.35-7.1 7.02C3.52 15.91 7.27 20 12 20c3.19 0 5.93-1.87 7.21-4.56.32-.67-.16-1.44-.9-1.44-.37 0-.72.2-.88.53-1.13 2.43-3.84 3.97-6.8 3.31-2.22-.49-4.01-2.3-4.48-4.52C5.31 9.44 8.26 6 12 6c1.66 0 3.14.69 4.22 1.78l-1.51 1.51c-.63.63-.19 1.71.7 1.71H19c.55 0 1-.45 1-1V6.41c0-.89-1.08-1.34-1.71-.71l-.64.65z"/>
        </symbol>
        <symbol id="icon-refresh--sharp" viewBox="0 0 24 24">
            <title>refresh sharp</title>
            <path d="M17.65 6.35C16.2 4.9 14.21 4 12 4c-4.42 0-7.99 3.58-7.99 8s3.57 8 7.99 8c3.73 0 6.84-2.55 7.73-6h-2.08c-.82 2.33-3.04 4-5.65 4-3.31 0-6-2.69-6-6s2.69-6 6-6c1.66 0 3.14.69 4.22 1.78L13 11h7V4l-2.35 2.35z"/>
        </symbol>
        <symbol id="icon-contract" viewBox="0 0 24 24">
            <title>contract</title>
            <path d="M12 8l-6 6 1.41 1.41L12 10.83l4.59 4.58L18 14z"/>
        </symbol>
        <symbol id="icon-contract--fill" viewBox="0 0 24 24">
            <title>contract fill</title>
            <path d="M12 8l-6 6 1.41 1.41L12 10.83l4.59 4.58L18 14z"/>
        </symbol>
        <symbol id="icon-contract--round" viewBox="0 0 24 24">
            <title>contract round</title>
            <path d="M11.29 8.71L6.7 13.3c-.39.39-.39 1.02 0 1.41.39.39 1.02.39 1.41 0L12 10.83l3.88 3.88c.39.39 1.02.39 1.41 0 .39-.39.39-1.02 0-1.41L12.7 8.71c-.38-.39-1.02-.39-1.41 0z"/>
        </symbol>
        <symbol id="icon-contract--sharp" viewBox="0 0 24 24">
            <title>contract sharp</title>
            <path d="M12 8l-6 6 1.41 1.41L12 10.83l4.59 4.58L18 14z"/>
        </symbol>
        <symbol id="icon-expand" viewBox="0 0 24 24">
            <title>expand</title>
            <path d="M16.59 8.59L12 13.17 7.41 8.59 6 10l6 6 6-6-1.41-1.41z"/>
        </symbol>
        <symbol id="icon-expand--fill" viewBox="0 0 24 24">
            <title>expand fill</title>
            <path d="M16.59 8.59L12 13.17 7.41 8.59 6 10l6 6 6-6-1.41-1.41z"/>
        </symbol>
        <symbol id="icon-expand--round" viewBox="0 0 24 24">
            <title>expand round</title>
            <path d="M15.88 9.29L12 13.17 8.12 9.29c-.39-.39-1.02-.39-1.41 0-.39.39-.39 1.02 0 1.41l4.59 4.59c.39.39 1.02.39 1.41 0l4.59-4.59c.39-.39.39-1.02 0-1.41-.39-.38-1.03-.39-1.42 0z"/>
        </symbol>
        <symbol id="icon-expand--sharp" viewBox="0 0 24 24">
            <title>expand sharp</title>
            <path d="M16.59 8.59L12 13.17 7.41 8.59 6 10l6 6 6-6-1.41-1.41z"/>
        </symbol>
        
        
        
        <symbol id="icon-more" viewBox="0 0 24 24">
            <title>more</title>
            <path d="M12 8c1.1 0 2-.9 2-2s-.9-2-2-2-2 .9-2 2 .9 2 2 2zm0 2c-1.1 0-2 .9-2 2s.9 2 2 2 2-.9 2-2-.9-2-2-2zm0 6c-1.1 0-2 .9-2 2s.9 2 2 2 2-.9 2-2-.9-2-2-2z"/>
        </symbol>
        <symbol id="icon-more--fill" viewBox="0 0 24 24">
            <title>more fill</title>
            <path d="M12 8c1.1 0 2-.9 2-2s-.9-2-2-2-2 .9-2 2 .9 2 2 2zm0 2c-1.1 0-2 .9-2 2s.9 2 2 2 2-.9 2-2-.9-2-2-2zm0 6c-1.1 0-2 .9-2 2s.9 2 2 2 2-.9 2-2-.9-2-2-2z"/>
        </symbol>
        <symbol id="icon-more--round" viewBox="0 0 24 24">
            <title>more round</title>
            <path d="M12 8c1.1 0 2-.9 2-2s-.9-2-2-2-2 .9-2 2 .9 2 2 2zm0 2c-1.1 0-2 .9-2 2s.9 2 2 2 2-.9 2-2-.9-2-2-2zm0 6c-1.1 0-2 .9-2 2s.9 2 2 2 2-.9 2-2-.9-2-2-2z"/>
        </symbol>
        <symbol id="icon-more--sharp" viewBox="0 0 24 24">
            <title>more sharp</title>
            <path d="M12 8c1.1 0 2-.9 2-2s-.9-2-2-2-2 .9-2 2 .9 2 2 2zm0 2c-1.1 0-2 .9-2 2s.9 2 2 2 2-.9 2-2-.9-2-2-2zm0 6c-1.1 0-2 .9-2 2s.9 2 2 2 2-.9 2-2-.9-2-2-2z"/>
        </symbol>
        
        
         <symbol id="icon-done" viewBox="0 0 24 24">
            <title>done</title>
            <path d="M9 16.2L4.8 12l-1.4 1.4L9 19 21 7l-1.4-1.4L9 16.2z"/>
        </symbol>
        <symbol id="icon-done--fill" viewBox="0 0 24 24">
            <title>done fill</title>
            <path d="M9 16.2L4.8 12l-1.4 1.4L9 19 21 7l-1.4-1.4L9 16.2z"/>
        </symbol>
        <symbol id="icon-done--round" viewBox="0 0 24 24">
            <title>done round</title>
            <path d="M9 16.2l-3.5-3.5c-.39-.39-1.01-.39-1.4 0-.39.39-.39 1.01 0 1.4l4.19 4.19c.39.39 1.02.39 1.41 0L20.3 7.7c.39-.39.39-1.01 0-1.4-.39-.39-1.01-.39-1.4 0L9 16.2z"/>
        </symbol>
        <symbol id="icon-done--sharp" viewBox="0 0 24 24">
            <title>done sharp</title>
            <path d="M9 16.2L4.8 12l-1.4 1.4L9 19 21 7l-1.4-1.4L9 16.2z"/>
        </symbol>
        
        <symbol id="icon-setting" viewBox="0 0 24 24">
            <title>setting</title>
            <path d="M19.43 12.98c.04-.32.07-.64.07-.98 0-.34-.03-.66-.07-.98l2.11-1.65c.19-.15.24-.42.12-.64l-2-3.46c-.09-.16-.26-.25-.44-.25-.06 0-.12.01-.17.03l-2.49 1c-.52-.4-1.08-.73-1.69-.98l-.38-2.65C14.46 2.18 14.25 2 14 2h-4c-.25 0-.46.18-.49.42l-.38 2.65c-.61.25-1.17.59-1.69.98l-2.49-1c-.06-.02-.12-.03-.18-.03-.17 0-.34.09-.43.25l-2 3.46c-.13.22-.07.49.12.64l2.11 1.65c-.04.32-.07.65-.07.98 0 .33.03.66.07.98l-2.11 1.65c-.19.15-.24.42-.12.64l2 3.46c.09.16.26.25.44.25.06 0 .12-.01.17-.03l2.49-1c.52.4 1.08.73 1.69.98l.38 2.65c.03.24.24.42.49.42h4c.25 0 .46-.18.49-.42l.38-2.65c.61-.25 1.17-.59 1.69-.98l2.49 1c.06.02.12.03.18.03.17 0 .34-.09.43-.25l2-3.46c.12-.22.07-.49-.12-.64l-2.11-1.65zm-1.98-1.71c.04.31.05.52.05.73 0 .21-.02.43-.05.73l-.14 1.13.89.7 1.08.84-.7 1.21-1.27-.51-1.04-.42-.9.68c-.43.32-.84.56-1.25.73l-1.06.43-.16 1.13-.2 1.35h-1.4l-.19-1.35-.16-1.13-1.06-.43c-.43-.18-.83-.41-1.23-.71l-.91-.7-1.06.43-1.27.51-.7-1.21 1.08-.84.89-.7-.14-1.13c-.03-.31-.05-.54-.05-.74s.02-.43.05-.73l.14-1.13-.89-.7-1.08-.84.7-1.21 1.27.51 1.04.42.9-.68c.43-.32.84-.56 1.25-.73l1.06-.43.16-1.13.2-1.35h1.39l.19 1.35.16 1.13 1.06.43c.43.18.83.41 1.23.71l.91.7 1.06-.43 1.27-.51.7 1.21-1.07.85-.89.7.14 1.13zM12 8c-2.21 0-4 1.79-4 4s1.79 4 4 4 4-1.79 4-4-1.79-4-4-4zm0 6c-1.1 0-2-.9-2-2s.9-2 2-2 2 .9 2 2-.9 2-2 2z"/>
        </symbol>
        <symbol id="icon-setting--fill" viewBox="0 0 24 24">
            <title>setting fill</title>
            <path d="M19.44 12.99l-.01.02c.04-.33.08-.67.08-1.01 0-.34-.03-.66-.07-.99l.01.02 2.44-1.92-2.43-4.22-2.87 1.16.01.01c-.52-.4-1.09-.74-1.71-1h.01L14.44 2H9.57l-.44 3.07h.01c-.62.26-1.19.6-1.71 1l.01-.01-2.88-1.17-2.44 4.22 2.44 1.92.01-.02c-.04.33-.07.65-.07.99 0 .34.03.68.08 1.01l-.01-.02-2.1 1.65-.33.26 2.43 4.2 2.88-1.15-.02-.04c.53.41 1.1.75 1.73 1.01h-.03L9.58 22h4.85s.03-.18.06-.42l.38-2.65h-.01c.62-.26 1.2-.6 1.73-1.01l-.02.04 2.88 1.15 2.43-4.2s-.14-.12-.33-.26l-2.11-1.66zM12 15.5c-1.93 0-3.5-1.57-3.5-3.5s1.57-3.5 3.5-3.5 3.5 1.57 3.5 3.5-1.57 3.5-3.5 3.5z"/>
        </symbol>
        <symbol id="icon-setting--round" viewBox="0 0 24 24">
            <title>setting round</title>
            <path d="M19.43 12.98c.04-.32.07-.64.07-.98s-.03-.66-.07-.98l2.11-1.65c.19-.15.24-.42.12-.64l-2-3.46c-.12-.22-.39-.3-.61-.22l-2.49 1c-.52-.4-1.08-.73-1.69-.98l-.38-2.65C14.46 2.18 14.25 2 14 2h-4c-.25 0-.46.18-.49.42l-.38 2.65c-.61.25-1.17.59-1.69.98l-2.49-1c-.23-.09-.49 0-.61.22l-2 3.46c-.13.22-.07.49.12.64l2.11 1.65c-.04.32-.07.65-.07.98s.03.66.07.98l-2.11 1.65c-.19.15-.24.42-.12.64l2 3.46c.12.22.39.3.61.22l2.49-1c.52.4 1.08.73 1.69.98l.38 2.65c.03.24.24.42.49.42h4c.25 0 .46-.18.49-.42l.38-2.65c.61-.25 1.17-.59 1.69-.98l2.49 1c.23.09.49 0 .61-.22l2-3.46c.12-.22.07-.49-.12-.64l-2.11-1.65zM12 15.5c-1.93 0-3.5-1.57-3.5-3.5s1.57-3.5 3.5-3.5 3.5 1.57 3.5 3.5-1.57 3.5-3.5 3.5z"/>
        </symbol>
        <symbol id="icon-setting--sharp" viewBox="0 0 24 24">
            <title>setting sharp</title>
            <path d="M19.44 12.99l-.01.02c.04-.33.08-.67.08-1.01 0-.34-.03-.66-.07-.99l.01.02 2.44-1.92-2.43-4.22-2.87 1.16.01.01c-.52-.4-1.09-.74-1.71-1h.01L14.44 2H9.57l-.44 3.07h.01c-.62.26-1.19.6-1.71 1l.01-.01-2.88-1.17-2.44 4.22 2.44 1.92.01-.02c-.04.33-.07.65-.07.99 0 .34.03.68.08 1.01l-.01-.02-2.1 1.65-.33.26 2.43 4.2 2.88-1.15-.02-.04c.53.41 1.1.75 1.73 1.01h-.03L9.58 22h4.85s.03-.18.06-.42l.38-2.65h-.01c.62-.26 1.2-.6 1.73-1.01l-.02.04 2.88 1.15 2.43-4.2s-.14-.12-.33-.26l-2.11-1.66zM12 15.5c-1.93 0-3.5-1.57-3.5-3.5s1.57-3.5 3.5-3.5 3.5 1.57 3.5 3.5-1.57 3.5-3.5 3.5z"/>
        </symbol>
        
        
        <symbol id="icon-dashboard" viewBox="0 0 24 24">
            <title>dashboard</title>
            <path d="M19 5v2h-4V5h4M9 5v6H5V5h4m10 8v6h-4v-6h4M9 17v2H5v-2h4M21 3h-8v6h8V3zM11 3H3v10h8V3zm10 8h-8v10h8V11zm-10 4H3v6h8v-6z"/>
        </symbol>
        <symbol id="icon-dashboard--fill" viewBox="0 0 24 24">
            <title>dashboard fill</title>
            <path d="M3 13h8V3H3v10zm0 8h8v-6H3v6zm10 0h8V11h-8v10zm0-18v6h8V3h-8z"/>
        </symbol>
        <symbol id="icon-dashboard--round" viewBox="0 0 24 24">
            <title>dashboard round</title>
            <path d="M4 13h6c.55 0 1-.45 1-1V4c0-.55-.45-1-1-1H4c-.55 0-1 .45-1 1v8c0 .55.45 1 1 1zm0 8h6c.55 0 1-.45 1-1v-4c0-.55-.45-1-1-1H4c-.55 0-1 .45-1 1v4c0 .55.45 1 1 1zm10 0h6c.55 0 1-.45 1-1v-8c0-.55-.45-1-1-1h-6c-.55 0-1 .45-1 1v8c0 .55.45 1 1 1zM13 4v4c0 .55.45 1 1 1h6c.55 0 1-.45 1-1V4c0-.55-.45-1-1-1h-6c-.55 0-1 .45-1 1z"/>
        </symbol>
        <symbol id="icon-dashboard--sharp" viewBox="0 0 24 24">
            <title>dashboard sharp</title>
            <path d="M3 13h8V3H3v10zm0 8h8v-6H3v6zm10 0h8V11h-8v10zm0-18v6h8V3h-8z"/>
        </symbol>
        
        
        
        <symbol id="icon-barchart" viewBox="0 0 24 24">
            <title>barchart</title>
            <path d="M5 9.2h3V19H5V9.2zM10.6 5h2.8v14h-2.8V5zm5.6 8H19v6h-2.8v-6z"/>
        </symbol>
        <symbol id="icon-barchart--fill" viewBox="0 0 24 24">
            <title>barchart fill</title>
            <path d="M5 9.2h3V19H5V9.2zM10.6 5h2.8v14h-2.8V5zm5.6 8H19v6h-2.8v-6z"/>
        </symbol>
        <symbol id="icon-barchart--round" viewBox="0 0 24 24">
            <title>barchart round</title>
            <path d="M6.4 9.2h.2c.77 0 1.4.63 1.4 1.4v7c0 .77-.63 1.4-1.4 1.4h-.2c-.77 0-1.4-.63-1.4-1.4v-7c0-.77.63-1.4 1.4-1.4zM12 5c.77 0 1.4.63 1.4 1.4v11.2c0 .77-.63 1.4-1.4 1.4-.77 0-1.4-.63-1.4-1.4V6.4c0-.77.63-1.4 1.4-1.4zm5.6 8c.77 0 1.4.63 1.4 1.4v3.2c0 .77-.63 1.4-1.4 1.4-.77 0-1.4-.63-1.4-1.4v-3.2c0-.77.63-1.4 1.4-1.4z"/>
        </symbol>
        <symbol id="icon-barchart--sharp" viewBox="0 0 24 24">
            <title>barchart sharp</title>
            <path d="M5 9.2h3V19H5V9.2zM10.6 5h2.8v14h-2.8V5zm5.6 8H19v6h-2.8v-6z"/>
        </symbol>
        
        
        <symbol id="icon-piechart" viewBox="0 0 24 24">
            <title>piechart</title>
            <path d="M12 2C6.48 2 2 6.48 2 12s4.48 10 10 10 10-4.48 10-10S17.52 2 12 2zm7.93 9H13V4.07c3.61.45 6.48 3.32 6.93 6.93zM4 12c0-4.07 3.06-7.44 7-7.93v15.86c-3.94-.49-7-3.86-7-7.93zm9 7.93V13h6.93c-.45 3.61-3.32 6.48-6.93 6.93z"/>
        </symbol>
        <symbol id="icon-piechart--fill" viewBox="0 0 24 24">
            <title>piechart fill</title>
            <path d="M11 2v20c-5.07-.5-9-4.79-9-10s3.93-9.5 9-10zm2.03 0v8.99H22c-.47-4.74-4.24-8.52-8.97-8.99zm0 11.01V22c4.74-.47 8.5-4.25 8.97-8.99h-8.97z"/>
        </symbol>
        <symbol id="icon-piechart--round" viewBox="0 0 24 24">
            <title>piechart round</title>
            <path d="M11 3.18v17.64c0 .64-.59 1.12-1.21.98C5.32 20.8 2 16.79 2 12s3.32-8.8 7.79-9.8c.62-.14 1.21.34 1.21.98zm2.03 0v6.81c0 .55.45 1 1 1h6.79c.64 0 1.12-.59.98-1.22-.85-3.76-3.8-6.72-7.55-7.57-.63-.14-1.22.34-1.22.98zm0 10.83v6.81c0 .64.59 1.12 1.22.98 3.76-.85 6.71-3.82 7.56-7.58.14-.62-.35-1.22-.98-1.22h-6.79c-.56.01-1.01.46-1.01 1.01z"/>
        </symbol>
        <symbol id="icon-piechart--sharp" viewBox="0 0 24 24">
            <title>piechart sharp</title>
            <path d="M11 2v20c-5.07-.5-9-4.79-9-10s3.93-9.5 9-10zm2.03 0v8.99H22c-.47-4.74-4.24-8.52-8.97-8.99zm0 11.01V22c4.74-.47 8.5-4.25 8.97-8.99h-8.97z"/>
        </symbol>
        
    </defs>
</svg>
