 <svg display="none" width="24" height="24" version="1.1"
      xmlns="http://www.w3.org/2000/svg"
      xmlns:xlink="http://www.w3.org/1999/xlink">
    <defs>
        <symbol id="icon-save" viewBox="0 0 24 24">
            <title>save</title>
            <path d="M17 3H5c-1.11 0-2 .9-2 2v14c0 1.1.89 2 2 2h14c1.1 0 2-.9 2-2V7l-4-4zm2 16H5V5h11.17L19 7.83V19zm-7-7c-1.66 0-3 1.34-3 3s1.34 3 3 3 3-1.34 3-3-1.34-3-3-3zM6 6h9v4H6z"/>
        </symbol>
        <symbol id="icon-save--fill" viewBox="0 0 24 24">
            <title>save fill</title>
            <path d="M17 3H5c-1.11 0-2 .9-2 2v14c0 1.1.89 2 2 2h14c1.1 0 2-.9 2-2V7l-4-4zm-5 16c-1.66 0-3-1.34-3-3s1.34-3 3-3 3 1.34 3 3-1.34 3-3 3zm3-10H5V5h10v4z" />
        </symbol>
        <symbol id="icon-save--round" viewBox="0 0 24 24">
            <title>save round</title>
            <path d="M17.59 3.59c-.38-.38-.89-.59-1.42-.59H5c-1.11 0-2 .9-2 2v14c0 1.1.9 2 2 2h14c1.1 0 2-.9 2-2V7.83c0-.53-.21-1.04-.59-1.41l-2.82-2.83zM12 19c-1.66 0-3-1.34-3-3s1.34-3 3-3 3 1.34 3 3-1.34 3-3 3zm1-10H7c-1.1 0-2-.9-2-2s.9-2 2-2h6c1.1 0 2 .9 2 2s-.9 2-2 2z"/>
        </symbol>
        <symbol id="icon-save--sharp" viewBox="0 0 24 24">
            <title>save shart</title>
            <path d="M17 3H3v18h18V7l-4-4zm-5 16c-1.66 0-3-1.34-3-3s1.34-3 3-3 3 1.34 3 3-1.34 3-3 3zm3-10H5V5h10v4z"/>
        </symbol>
        <symbol id="icon-edit" viewBox="0 0 24 24">
            <title>edit</title>
            <path d="M14.06 9.02l.92.92L5.92 19H5v-.92l9.06-9.06M17.66 3c-.25 0-.51.1-.7.29l-1.83 1.83 3.75 3.75 1.83-1.83c.39-.39.39-1.02 0-1.41l-2.34-2.34c-.2-.2-.45-.29-.71-.29zm-3.6 3.19L3 17.25V21h3.75L17.81 9.94l-3.75-3.75z"/>
        </symbol>
        <symbol id="icon-edit--fill" viewBox="0 0 24 24">
            <title>edit fill</title>
            <path d="M3 17.25V21h3.75L17.81 9.94l-3.75-3.75L3 17.25zM20.71 7.04c.39-.39.39-1.02 0-1.41l-2.34-2.34c-.39-.39-1.02-.39-1.41 0l-1.83 1.83 3.75 3.75 1.83-1.83z"/>
        </symbol>
        <symbol id="icon-edit--round" viewBox="0 0 24 24">
            <title>edit round</title>
            <path d="M3 17.46v3.04c0 .28.22.5.5.5h3.04c.13 0 .26-.05.35-.15L17.81 9.94l-3.75-3.75L3.15 17.1c-.1.1-.15.22-.15.36zM20.71 7.04c.39-.39.39-1.02 0-1.41l-2.34-2.34c-.39-.39-1.02-.39-1.41 0l-1.83 1.83 3.75 3.75 1.83-1.83z"/>
        </symbol>
        <symbol id="icon-edit--sharp" viewBox="0 0 24 24">
            <title>edit sharp</title>
            <path d="M3 17.25V21h3.75L17.81 9.94l-3.75-3.75L3 17.25zM21.41 6.34l-3.75-3.75-2.53 2.54 3.75 3.75 2.53-2.54z"/>
        </symbol>
        <symbol id="icon-delete" viewBox="0 0 24 24">
            <title>delete</title>
            <path d="M16 9v10H8V9h8m-1.5-6h-5l-1 1H5v2h14V4h-3.5l-1-1zM18 7H6v12c0 1.1.9 2 2 2h8c1.1 0 2-.9 2-2V7z"/>
        </symbol>
        <symbol id="icon-delete--fill" viewBox="0 0 24 24">
            <title>delete fill</title>
            <path d="M6 19c0 1.1.9 2 2 2h8c1.1 0 2-.9 2-2V7H6v12zM19 4h-3.5l-1-1h-5l-1 1H5v2h14V4z"/>
        </symbol>
        <symbol id="icon-delete--round" viewBox="0 0 24 24">
            <title>delete round</title>
            <path d="M6 19c0 1.1.9 2 2 2h8c1.1 0 2-.9 2-2V9c0-1.1-.9-2-2-2H8c-1.1 0-2 .9-2 2v10zM18 4h-2.5l-.71-.71c-.18-.18-.44-.29-.7-.29H9.91c-.26 0-.52.11-.7.29L8.5 4H6c-.55 0-1 .45-1 1s.45 1 1 1h12c.55 0 1-.45 1-1s-.45-1-1-1z"/>
        </symbol>
        <symbol id="icon-delete--sharp" viewBox="0 0 24 24">
            <title>delete sharp</title>
            <path d="M6 21h12V7H6v14zM19 4h-3.5l-1-1h-5l-1 1H5v2h14V4z"/>
        </symbol>
        <symbol id="icon-add" viewBox="0 0 24 24">
            <title>add</title>
            <path d="M19 13h-6v6h-2v-6H5v-2h6V5h2v6h6v2z"/>
        </symbol>
        <symbol id="icon-add--fill" viewBox="0 0 24 24">
            <title>add fill</title>
            <path d="M19 13h-6v6h-2v-6H5v-2h6V5h2v6h6v2z"/>
        </symbol>
        <symbol id="icon-add--round" viewBox="0 0 24 24">
            <title>add round</title>
            <path d="M18 13h-5v5c0 .55-.45 1-1 1s-1-.45-1-1v-5H6c-.55 0-1-.45-1-1s.45-1 1-1h5V6c0-.55.45-1 1-1s1 .45 1 1v5h5c.55 0 1 .45 1 1s-.45 1-1 1z"/>
        </symbol>
        <symbol id="icon-add--sharp" viewBox="0 0 24 24">
            <title>add sharp</title>
            <path d="M19 13h-6v6h-2v-6H5v-2h6V5h2v6h6v2z"/>
        </symbol>
        <symbol id="icon-table" viewBox="0 0 24 24">
            <title>table</title>
            <path d="M20 2H4c-1.1 0-2 .9-2 2v16c0 1.1.9 2 2 2h16c1.1 0 2-.9 2-2V4c0-1.1-.9-2-2-2zM8 20H4v-4h4v4zm0-6H4v-4h4v4zm0-6H4V4h4v4zm6 12h-4v-4h4v4zm0-6h-4v-4h4v4zm0-6h-4V4h4v4zm6 12h-4v-4h4v4zm0-6h-4v-4h4v4zm0-6h-4V4h4v4z"/>
        </symbol>
        <symbol id="icon-table--fill" viewBox="0 0 24 24">
            <title>table fill</title>
            <path d="M20 2H4c-1.1 0-2 .9-2 2v16c0 1.1.9 2 2 2h16c1.1 0 2-.9 2-2V4c0-1.1-.9-2-2-2zM8 20H4v-4h4v4zm0-6H4v-4h4v4zm0-6H4V4h4v4zm6 12h-4v-4h4v4zm0-6h-4v-4h4v4zm0-6h-4V4h4v4zm6 12h-4v-4h4v4zm0-6h-4v-4h4v4zm0-6h-4V4h4v4z"/>
        </symbol>
        <symbol id="icon-table--round" viewBox="0 0 24 24">
            <title>table round</title>
            <path d="M20 2H4c-1.1 0-2 .9-2 2v16c0 1.1.9 2 2 2h16c1.1 0 2-.9 2-2V4c0-1.1-.9-2-2-2zM8 20H4v-4h4v4zm0-6H4v-4h4v4zm0-6H4V4h4v4zm6 12h-4v-4h4v4zm0-6h-4v-4h4v4zm0-6h-4V4h4v4zm6 12h-4v-4h4v4zm0-6h-4v-4h4v4zm0-6h-4V4h4v4z"/>
        </symbol>
        <symbol id="icon-table--sharp" viewBox="0 0 24 24">
            <title>table sharp</title>
            <path d="M22 2H2v20h20V2zM8 20H4v-4h4v4zm0-6H4v-4h4v4zm0-6H4V4h4v4zm6 12h-4v-4h4v4zm0-6h-4v-4h4v4zm0-6h-4V4h4v4zm6 12h-4v-4h4v4zm0-6h-4v-4h4v4zm0-6h-4V4h4v4z"/>
        </symbol>
        
        
         <symbol id="icon-close" viewBox="0 0 24 24">
            <title>close</title>
            <path d="M19 6.41L17.59 5 12 10.59 6.41 5 5 6.41 10.59 12 5 17.59 6.41 19 12 13.41 17.59 19 19 17.59 13.41 12 19 6.41z"/>
        </symbol>
        <symbol id="icon-close--fill" viewBox="0 0 24 24">
            <title>close fill</title>
            <path d="M19 6.41L17.59 5 12 10.59 6.41 5 5 6.41 10.59 12 5 17.59 6.41 19 12 13.41 17.59 19 19 17.59 13.41 12 19 6.41z"/>
        </symbol>
        <symbol id="icon-close--round" viewBox="0 0 24 24">
            <title>close round</title>
            <path d="M18.3 5.71c-.39-.39-1.02-.39-1.41 0L12 10.59 7.11 5.7c-.39-.39-1.02-.39-1.41 0-.39.39-.39 1.02 0 1.41L10.59 12 5.7 16.89c-.39.39-.39 1.02 0 1.41.39.39 1.02.39 1.41 0L12 13.41l4.89 4.89c.39.39 1.02.39 1.41 0 .39-.39.39-1.02 0-1.41L13.41 12l4.89-4.89c.38-.38.38-1.02 0-1.4z"/>
        </symbol>
        <symbol id="icon-close--sharp" viewBox="0 0 24 24">
            <title>close sharp</title>
            <path d="M19 6.41L17.59 5 12 10.59 6.41 5 5 6.41 10.59 12 5 17.59 6.41 19 12 13.41 17.59 19 19 17.59 13.41 12 19 6.41z"/>
        </symbol>
        
        
    </defs>
</svg>
